<svg xmlns="http://www.w3.org/2000/svg" viewBox="0 0 32 32"><defs><style>.cls-1{fill:#a9c0c4;}.cls-2{fill:#14181a;}</style></defs><title>racoon_logo</title><g id="windows"><path class="cls-1" d="M26.93,12.45l-.06-5.82a1.56,1.56,0,0,0-2.42-1.29L19.8,8.42a15.52,15.52,0,0,0-7.6,0L7.55,5.34A1.56,1.56,0,0,0,5.13,6.63l-.06,5.82L2.36,19.39l10.46,6.22a4.51,4.51,0,0,0,6.36,0l10.46-6.22Z"/><path class="cls-2" d="M25.31,5.08a1.55,1.55,0,0,1,1.56,1.55l.06,5.82,2.71,6.94L19.18,25.61a4.51,4.51,0,0,1-6.36,0L2.36,19.39l2.71-6.94.06-5.82A1.56,1.56,0,0,1,7.55,5.34L12.2,8.42a15.6,15.6,0,0,1,7.6,0l4.65-3.08a1.54,1.54,0,0,1,.86-.26m0-1.9a3.43,3.43,0,0,0-1.91.58l-4,2.64a17.47,17.47,0,0,0-6.86,0l-4-2.64a3.43,3.43,0,0,0-1.91-.58A3.47,3.47,0,0,0,3.23,6.61l0,5.47L.6,18.71,0,20.2,1.4,21l10.27,6.1a6.36,6.36,0,0,0,8.66,0L30.6,21,32,20.2l-.58-1.49-2.59-6.63,0-5.47a3.47,3.47,0,0,0-3.46-3.43Z"/><path class="cls-2" d="M17.75,22.08a2.28,2.28,0,0,0-1.61-.8h-.09a2.38,2.38,0,0,0-1.8.8l-.23.25a1.79,1.79,0,0,0-.17,2.2,2.61,2.61,0,0,0,4.3,0,1.79,1.79,0,0,0-.17-2.2Z"/><path class="cls-2" d="M28.23,20.23s-1.8-3.23-3.51-4c-1.17-.54-2.83-1.2-3.75-1.56l.12-.25a.71.71,0,0,0-.33-1,.72.72,0,0,0-1,.34l-2.45,5.09.64.31a16.17,16.17,0,0,1,2.8,2.09A3.51,3.51,0,0,1,22,23.93Z"/><path class="cls-2" d="M7.93,7a1,1,0,0,0-1.59.84l0,3.56L10.89,9Z"/><path class="cls-2" d="M14,19.19l.64-.31-2.46-5.12a.73.73,0,0,0-1-.33.72.72,0,0,0-.34,1l.14.27c-.92.36-2.58,1-3.75,1.56-1.71.78-3.51,4-3.51,4L10,23.93a3.51,3.51,0,0,1,1.21-2.65A16.35,16.35,0,0,1,14,19.19Z"/><path class="cls-2" d="M24.07,7a1,1,0,0,1,1.59.84l0,3.56L21.11,9Z"/></g></svg>